<svg xmlns="http://www.w3.org/2000/svg" width="1000" height="1000" viewBox="0 0 1189 1189" fill="none">
  <path d="M 611.0 1143.5 L 610.5 1142.0 L 614.5 1132.0 L 615.5 1122.0 L 616.5 1121.0 L 615.5 1096.0 L 611.5 1084.0 L 597.5 1058.0 L 593.0 1045.5 L 583.5 1066.0 L 578.5 1073.0 L 572.5 1085.0 L 568.5 1098.0 L 567.5 1119.0 L 572.5 1141.0 L 568.5 1137.0 L 563.5 1124.0 L 562.5 1119.0 L 563.5 1094.0 L 568.5 1080.0 L 585.5 1048.0 L 588.5 1034.0 L 583.5 1016.0 L 570.5 989.0 L 565.5 972.0 L 564.5 962.0 L 563.0 960.5 L 560.5 970.0 L 553.5 986.0 L 551.5 996.0 L 551.5 1002.0 L 550.5 1003.0 L 550.5 1037.0 L 549.5 1040.0 L 548.5 1040.0 L 548.5 1032.0 L 546.5 1022.0 L 546.5 997.0 L 547.5 992.0 L 526.5 1013.0 L 518.5 1028.0 L 515.5 1041.0 L 515.5 1059.0 L 516.5 1060.0 L 515.5 1087.0 L 510.5 1100.0 L 505.5 1105.0 L 510.5 1093.0 L 512.5 1083.0 L 512.5 1070.0 L 511.5 1069.0 L 511.5 1056.0 L 510.5 1055.0 L 510.5 1040.0 L 512.5 1030.0 L 514.5 1024.0 L 522.5 1010.0 L 544.5 987.0 L 553.5 972.0 L 557.5 962.0 L 561.5 944.0 L 561.5 935.0 L 562.5 934.0 L 562.5 926.0 L 563.5 925.0 L 565.0 911.5 L 553.5 929.0 L 536.0 947.5 L 515.0 963.5 L 499.0 973.5 L 481.5 991.0 L 476.5 1007.0 L 475.5 1037.0 L 474.5 1038.0 L 472.5 1054.0 L 463.5 1074.0 L 458.5 1081.0 L 449.0 1089.5 L 449.5 1087.0 L 455.5 1080.0 L 462.5 1068.0 L 468.5 1050.0 L 469.5 1038.0 L 470.5 1037.0 L 470.5 1011.0 L 472.5 1003.0 L 472.0 996.5 L 454.5 1014.0 L 439.5 1042.0 L 432.5 1052.0 L 424.0 1060.5 L 412.0 1067.5 L 410.5 1067.0 L 417.0 1062.5 L 427.5 1052.0 L 434.5 1042.0 L 445.5 1019.0 L 453.5 1007.0 L 472.5 988.0 L 476.5 973.0 L 477.5 957.0 L 482.5 940.0 L 490.5 925.0 L 506.5 907.0 L 505.0 906.5 L 503.0 908.5 L 481.0 918.5 L 445.0 928.5 L 438.5 933.0 L 430.5 960.0 L 413.5 1003.0 L 401.5 1021.0 L 388.0 1034.5 L 377.0 1040.5 L 379.0 1037.5 L 390.5 1028.0 L 404.5 1009.0 L 415.5 986.0 L 422.5 963.0 L 429.5 945.0 L 432.0 932.5 L 412.0 939.5 L 397.0 949.5 L 389.5 957.0 L 382.5 967.0 L 373.5 988.0 L 364.5 1003.0 L 351.0 1015.5 L 347.0 1017.5 L 345.5 1017.0 L 358.5 1005.0 L 363.5 998.0 L 368.5 989.0 L 377.5 966.0 L 386.5 953.0 L 402.0 939.5 L 413.0 933.5 L 432.0 926.5 L 435.5 923.0 L 441.5 906.0 L 448.5 894.0 L 457.5 883.0 L 470.5 872.0 L 423.0 873.5 L 411.0 876.5 L 393.0 885.5 L 374.5 903.0 L 366.5 916.0 L 356.5 939.0 L 349.5 949.0 L 340.0 957.5 L 322.0 968.5 L 312.5 979.0 L 306.0 992.5 L 305.5 989.0 L 308.5 980.0 L 314.5 971.0 L 324.0 962.5 L 338.0 953.5 L 349.5 941.0 L 366.5 906.0 L 365.0 905.5 L 363.0 907.5 L 351.0 911.5 L 338.0 912.5 L 320.0 917.5 L 307.0 926.5 L 292.0 941.5 L 286.0 945.5 L 275.0 949.5 L 271.5 949.0 L 284.0 943.5 L 288.0 940.5 L 311.0 917.5 L 316.0 914.5 L 325.0 910.5 L 351.0 906.5 L 362.0 902.5 L 372.0 896.5 L 390.0 880.5 L 405.0 872.5 L 412.5 870.0 L 410.0 868.5 L 391.0 866.5 L 390.0 865.5 L 366.0 862.5 L 365.0 861.5 L 358.0 861.5 L 357.0 860.5 L 335.0 860.5 L 319.0 864.5 L 295.0 875.5 L 284.0 878.5 L 268.0 879.5 L 259.5 877.0 L 281.0 875.5 L 293.0 871.5 L 317.0 859.5 L 338.0 854.5 L 359.0 854.5 L 360.0 855.5 L 367.0 855.5 L 388.0 859.5 L 403.0 860.5 L 404.0 859.5 L 424.0 858.5 L 444.0 853.5 L 470.0 843.5 L 490.0 833.5 L 513.0 817.5 L 531.5 800.0 L 545.5 781.0 L 555.5 760.0 L 561.5 736.0 L 562.5 718.0 L 563.5 717.0 L 563.5 645.0 L 562.5 644.0 L 562.5 629.0 L 561.5 628.0 L 560.5 615.0 L 553.5 591.0 L 542.5 571.0 L 527.0 554.5 L 511.0 544.5 L 494.0 538.5 L 483.0 537.5 L 482.0 536.5 L 468.0 536.5 L 456.0 539.5 L 443.0 546.5 L 431.5 559.0 L 426.5 569.0 L 423.5 580.0 L 423.5 592.0 L 433.5 602.0 L 437.5 609.0 L 439.5 616.0 L 438.5 632.0 L 434.5 643.0 L 430.0 649.5 L 416.5 637.0 L 412.5 631.0 L 409.5 623.0 L 409.5 611.0 L 412.5 603.0 L 418.5 594.0 L 417.5 588.0 L 406.0 596.5 L 402.0 601.5 L 401.5 599.0 L 403.5 594.0 L 408.5 588.0 L 417.5 580.0 L 422.5 564.0 L 429.5 552.0 L 436.0 544.5 L 444.0 539.5 L 444.5 538.0 L 435.0 539.5 L 418.0 544.5 L 390.0 557.5 L 373.0 569.5 L 364.5 578.0 L 356.5 589.0 L 349.5 604.0 L 345.5 620.0 L 346.5 625.0 L 350.5 632.0 L 352.5 641.0 L 351.5 653.0 L 345.5 665.0 L 336.0 674.5 L 327.0 680.5 L 324.5 678.0 L 319.5 664.0 L 318.5 659.0 L 319.5 644.0 L 321.5 638.0 L 325.5 632.0 L 332.0 625.5 L 340.5 620.0 L 343.5 604.0 L 350.5 589.0 L 350.0 587.5 L 327.0 602.5 L 298.0 616.5 L 296.5 624.0 L 291.5 636.0 L 283.0 645.5 L 278.0 648.5 L 264.0 652.5 L 245.0 653.5 L 247.5 638.0 L 254.5 624.0 L 266.0 613.5 L 275.0 610.5 L 297.0 611.5 L 328.0 595.5 L 354.0 577.5 L 362.0 569.5 L 345.0 574.5 L 331.0 575.5 L 330.0 576.5 L 313.0 576.5 L 312.0 575.5 L 302.0 575.5 L 301.0 574.5 L 284.0 572.5 L 272.0 583.5 L 260.0 588.5 L 242.0 587.5 L 231.0 583.5 L 220.5 577.0 L 235.0 561.5 L 242.0 557.5 L 253.0 554.5 L 260.0 554.5 L 268.0 556.5 L 276.0 560.5 L 285.0 567.5 L 297.0 568.5 L 298.0 569.5 L 308.0 569.5 L 309.0 570.5 L 332.0 570.5 L 353.0 566.5 L 368.0 561.5 L 387.0 551.5 L 389.0 551.5 L 388.0 549.5 L 381.0 549.5 L 366.0 544.5 L 361.0 544.5 L 351.0 547.5 L 343.0 547.5 L 332.0 543.5 L 323.5 536.0 L 313.5 518.0 L 316.0 516.5 L 331.0 513.5 L 332.0 514.5 L 343.0 514.5 L 352.0 518.5 L 360.5 527.0 L 367.0 539.5 L 379.0 543.5 L 384.0 543.5 L 385.0 544.5 L 403.0 543.5 L 430.0 534.5 L 449.0 530.5 L 459.0 530.5 L 460.0 529.5 L 485.0 530.5 L 486.0 531.5 L 496.0 532.5 L 508.0 536.5 L 522.0 543.5 L 534.0 552.5 L 543.5 562.0 L 552.5 575.0 L 560.5 592.0 L 565.5 609.0 L 566.5 621.0 L 568.5 628.0 L 568.5 639.0 L 569.5 640.0 L 569.5 719.0 L 568.5 720.0 L 567.5 737.0 L 563.5 755.0 L 559.5 767.0 L 551.5 783.0 L 543.5 795.0 L 531.5 809.0 L 514.0 824.5 L 498.0 835.5 L 469.0 850.5 L 441.0 860.5 L 437.0 860.5 L 428.0 863.5 L 423.0 863.5 L 421.5 865.0 L 431.0 865.5 L 432.0 866.5 L 466.0 866.5 L 482.0 863.5 L 499.0 857.5 L 514.0 849.5 L 532.0 836.5 L 550.5 817.0 L 561.5 801.0 L 567.5 789.0 L 574.5 769.0 L 578.5 748.0 L 579.5 732.0 L 580.5 731.0 L 580.5 716.0 L 581.5 715.0 L 581.5 645.0 L 580.5 644.0 L 580.5 631.0 L 578.5 622.0 L 578.5 614.0 L 575.5 601.0 L 569.5 583.0 L 561.5 567.0 L 548.5 550.0 L 537.0 539.5 L 519.0 527.5 L 508.0 522.5 L 482.0 513.5 L 432.0 503.5 L 384.0 487.5 L 363.0 482.5 L 347.0 481.5 L 346.0 480.5 L 323.0 481.5 L 313.0 483.5 L 299.0 488.5 L 281.0 498.5 L 273.0 504.5 L 254.0 512.5 L 248.5 521.0 L 241.0 528.5 L 233.0 532.5 L 224.0 534.5 L 216.0 534.5 L 206.0 532.5 L 194.0 528.5 L 191.5 526.0 L 200.5 513.0 L 213.0 502.5 L 221.0 499.5 L 237.0 499.5 L 252.0 506.5 L 255.0 506.5 L 269.0 500.5 L 281.0 491.5 L 299.5 482.0 L 267.0 477.5 L 246.0 469.5 L 239.0 473.5 L 232.0 475.5 L 213.0 474.5 L 202.0 468.5 L 191.5 458.0 L 184.5 448.0 L 185.0 445.5 L 199.0 440.5 L 221.0 439.5 L 234.0 445.5 L 242.5 454.0 L 246.5 462.0 L 250.0 465.5 L 266.0 471.5 L 287.0 475.5 L 349.0 474.5 L 350.0 475.5 L 365.0 476.5 L 369.0 478.5 L 378.5 480.0 L 352.0 460.5 L 334.5 443.0 L 324.0 430.5 L 308.0 418.5 L 288.0 409.5 L 261.0 403.5 L 245.0 408.5 L 232.0 407.5 L 219.0 400.5 L 213.5 395.0 L 206.5 384.0 L 202.5 375.0 L 209.0 372.5 L 221.0 371.5 L 222.0 370.5 L 235.0 371.5 L 246.0 376.5 L 254.5 385.0 L 260.5 397.0 L 263.0 399.5 L 274.0 400.5 L 291.0 404.5 L 315.5 416.0 L 295.5 380.0 L 276.5 356.0 L 271.0 351.5 L 260.0 350.5 L 247.0 345.5 L 240.5 340.0 L 235.5 333.0 L 230.5 320.0 L 229.5 310.0 L 228.5 309.0 L 228.5 299.0 L 237.0 299.5 L 250.0 303.5 L 261.0 309.5 L 268.5 317.0 L 272.5 324.0 L 275.5 334.0 L 275.5 348.0 L 286.5 359.0 L 301.5 379.0 L 313.5 401.0 L 329.5 426.0 L 340.5 440.0 L 356.0 455.5 L 380.0 473.5 L 395.5 481.0 L 389.5 473.0 L 385.5 465.0 L 381.5 450.0 L 372.0 444.5 L 363.5 436.0 L 359.5 428.0 L 358.5 409.0 L 360.5 399.0 L 362.5 393.0 L 364.0 392.5 L 380.0 402.5 L 387.5 411.0 L 390.5 417.0 L 392.5 425.0 L 392.5 431.0 L 391.5 432.0 L 391.5 437.0 L 387.5 447.0 L 387.5 453.0 L 391.5 465.0 L 399.5 477.0 L 407.0 484.5 L 420.0 492.5 L 434.0 497.5 L 468.0 504.5 L 456.5 491.0 L 451.5 478.0 L 438.0 470.5 L 432.5 464.0 L 429.5 458.0 L 427.5 449.0 L 427.5 442.0 L 430.5 426.0 L 433.0 424.5 L 441.0 428.5 L 452.5 438.0 L 458.5 448.0 L 460.5 455.0 L 460.5 463.0 L 456.5 477.0 L 460.5 487.0 L 465.5 494.0 L 471.0 499.5 L 482.0 506.5 L 513.0 517.5 L 540.0 533.5 L 553.5 546.0 L 562.5 557.0 L 569.5 568.0 L 578.0 586.5 L 578.5 578.0 L 579.5 577.0 L 579.5 554.0 L 578.5 553.0 L 578.5 543.0 L 575.5 528.0 L 567.5 505.0 L 561.5 493.0 L 546.5 471.0 L 522.0 446.5 L 462.0 402.5 L 430.0 386.5 L 386.0 373.5 L 370.0 365.5 L 357.0 355.5 L 340.0 355.5 L 328.0 349.5 L 320.5 341.0 L 317.5 335.0 L 313.5 321.0 L 312.5 312.0 L 324.0 311.5 L 333.0 313.5 L 343.0 317.5 L 353.5 327.0 L 358.5 337.0 L 360.5 351.0 L 371.0 359.5 L 389.0 368.5 L 432.0 380.5 L 458.5 393.0 L 441.5 369.0 L 416.5 323.0 L 404.5 306.0 L 393.0 293.5 L 378.0 282.5 L 363.0 275.5 L 346.0 271.5 L 333.0 275.5 L 323.0 275.5 L 313.0 272.5 L 301.5 262.0 L 291.5 244.0 L 293.0 242.5 L 303.0 240.5 L 318.0 240.5 L 328.0 243.5 L 339.5 253.0 L 347.0 266.5 L 362.0 269.5 L 378.5 276.0 L 358.5 247.0 L 350.5 229.0 L 348.0 226.5 L 341.0 224.5 L 332.0 219.5 L 326.5 215.0 L 319.5 205.0 L 315.5 191.0 L 315.5 171.0 L 316.5 170.0 L 316.5 163.0 L 318.0 160.5 L 329.0 165.5 L 340.0 172.5 L 351.5 184.0 L 355.5 192.0 L 357.5 200.0 L 357.5 214.0 L 354.5 223.0 L 355.5 228.0 L 364.5 246.0 L 371.5 257.0 L 398.0 289.5 L 398.5 287.0 L 395.5 276.0 L 395.5 263.0 L 388.5 252.0 L 386.5 245.0 L 386.5 237.0 L 387.5 232.0 L 392.5 222.0 L 397.5 215.0 L 402.0 210.5 L 404.0 210.5 L 411.5 224.0 L 414.5 235.0 L 414.5 241.0 L 413.5 246.0 L 409.5 254.0 L 401.5 262.0 L 400.5 265.0 L 400.5 273.0 L 403.5 287.0 L 409.5 301.0 L 425.5 326.0 L 443.5 360.0 L 445.0 360.5 L 443.5 354.0 L 443.5 346.0 L 442.5 345.0 L 442.5 330.0 L 443.5 329.0 L 443.5 321.0 L 446.5 307.0 L 451.5 294.0 L 459.5 279.0 L 472.5 263.0 L 475.5 261.0 L 475.0 259.5 L 473.0 259.5 L 466.0 254.5 L 460.5 249.0 L 457.5 244.0 L 454.5 236.0 L 454.5 218.0 L 458.0 204.5 L 464.0 206.5 L 473.0 212.5 L 480.5 220.0 L 484.5 226.0 L 487.5 235.0 L 487.5 246.0 L 482.5 261.0 L 464.5 282.0 L 456.5 297.0 L 452.5 308.0 L 448.5 328.0 L 448.5 343.0 L 449.5 344.0 L 449.5 353.0 L 453.5 369.0 L 458.5 380.0 L 473.5 400.0 L 487.0 412.5 L 522.0 438.5 L 549.5 465.0 L 565.5 487.0 L 578.0 513.5 L 583.5 484.0 L 584.5 469.0 L 585.5 468.0 L 586.5 420.0 L 580.5 391.0 L 573.5 373.0 L 560.5 353.0 L 548.0 342.5 L 541.0 339.5 L 530.0 343.5 L 519.0 343.5 L 513.0 341.5 L 508.0 338.5 L 500.5 331.0 L 494.5 322.0 L 508.0 317.5 L 522.0 317.5 L 533.0 322.5 L 543.0 334.5 L 551.0 338.5 L 552.5 338.0 L 546.5 323.0 L 544.5 311.0 L 535.0 305.5 L 527.5 298.0 L 524.5 293.0 L 521.5 281.0 L 522.5 262.0 L 525.5 252.0 L 532.0 254.5 L 541.0 260.5 L 552.5 274.0 L 555.5 283.0 L 555.5 295.0 L 553.5 303.0 L 550.5 308.0 L 550.5 316.0 L 554.5 330.0 L 563.5 347.0 L 573.5 360.0 L 580.5 373.0 L 590.0 403.5 L 590.5 322.0 L 589.5 321.0 L 589.5 309.0 L 588.5 308.0 L 588.5 301.0 L 584.5 282.0 L 575.5 259.0 L 565.5 242.0 L 553.5 227.0 L 542.0 216.5 L 520.0 201.5 L 501.0 192.5 L 486.0 187.5 L 455.0 181.5 L 437.0 181.5 L 436.0 180.5 L 422.0 179.5 L 412.0 176.5 L 407.0 173.5 L 405.5 171.0 L 407.0 168.5 L 409.0 168.5 L 413.0 171.5 L 422.0 174.5 L 451.0 175.5 L 452.0 176.5 L 453.0 175.5 L 454.0 176.5 L 460.5 176.0 L 453.0 167.5 L 445.0 165.5 L 437.0 161.5 L 426.5 151.0 L 423.5 145.0 L 420.5 134.0 L 420.5 112.0 L 422.0 107.5 L 426.0 108.5 L 446.0 119.5 L 456.5 132.0 L 460.5 146.0 L 458.5 165.0 L 466.0 173.5 L 476.0 179.5 L 487.0 181.5 L 512.0 190.5 L 524.0 196.5 L 541.0 207.5 L 552.0 216.5 L 565.5 231.0 L 572.5 241.0 L 579.0 253.5 L 579.5 249.0 L 578.5 248.0 L 577.5 238.0 L 569.5 211.0 L 552.5 176.0 L 549.0 171.5 L 537.0 168.5 L 521.0 159.5 L 511.5 148.0 L 507.5 139.0 L 503.5 118.0 L 504.5 99.0 L 511.0 99.5 L 529.0 107.5 L 537.0 112.5 L 547.5 123.0 L 553.5 134.0 L 556.5 144.0 L 556.5 159.0 L 554.5 169.0 L 569.5 196.0 L 579.5 223.0 L 584.5 244.0 L 588.5 275.0 L 589.5 279.0 L 591.0 279.5 L 590.5 236.0 L 591.5 235.0 L 591.5 228.0 L 590.5 227.0 L 590.5 197.0 L 591.5 196.0 L 591.5 190.0 L 590.5 189.0 L 590.5 135.0 L 591.5 133.0 L 580.5 120.0 L 574.5 109.0 L 571.5 96.0 L 571.5 89.0 L 574.5 75.0 L 579.5 64.0 L 594.0 44.5 L 600.5 51.0 L 609.5 65.0 L 613.5 74.0 L 616.5 85.0 L 616.5 99.0 L 612.5 113.0 L 607.5 121.0 L 596.5 133.0 L 596.5 239.0 L 597.5 240.0 L 598.0 278.5 L 599.5 274.0 L 599.5 265.0 L 600.5 264.0 L 600.5 258.0 L 601.5 257.0 L 604.5 236.0 L 611.5 216.0 L 611.5 213.0 L 623.5 186.0 L 633.5 170.0 L 632.5 158.0 L 631.5 157.0 L 631.5 144.0 L 634.5 133.0 L 640.5 123.0 L 651.0 112.5 L 657.0 108.5 L 671.0 101.5 L 681.0 98.5 L 683.5 99.0 L 683.5 125.0 L 680.5 139.0 L 673.5 152.0 L 664.0 161.5 L 653.0 167.5 L 639.0 171.5 L 635.5 176.0 L 618.5 211.0 L 609.5 242.0 L 608.0 254.5 L 614.5 242.0 L 625.5 227.0 L 639.0 213.5 L 648.0 206.5 L 676.0 190.5 L 698.0 182.5 L 711.0 179.5 L 725.0 170.5 L 729.5 165.0 L 727.5 156.0 L 727.5 144.0 L 729.5 136.0 L 732.5 130.0 L 746.0 116.5 L 762.0 108.5 L 766.0 107.5 L 767.5 113.0 L 767.5 131.0 L 765.5 141.0 L 762.5 148.0 L 753.0 159.5 L 742.0 165.5 L 735.0 167.5 L 726.5 176.0 L 757.0 175.5 L 758.0 174.5 L 766.0 174.5 L 780.0 168.5 L 781.5 170.0 L 781.5 172.0 L 778.0 175.5 L 766.0 179.5 L 752.0 180.5 L 751.0 181.5 L 733.0 181.5 L 732.0 182.5 L 720.0 183.5 L 702.0 187.5 L 682.0 194.5 L 661.0 205.5 L 643.0 218.5 L 626.5 236.0 L 615.5 253.0 L 603.5 282.0 L 598.5 305.0 L 597.5 329.0 L 596.5 330.0 L 596.5 375.0 L 597.5 376.0 L 598.0 403.5 L 600.5 391.0 L 607.5 372.0 L 613.5 361.0 L 627.5 341.0 L 634.5 325.0 L 637.5 310.0 L 632.5 298.0 L 631.5 285.0 L 636.5 272.0 L 649.0 258.5 L 662.5 252.0 L 665.5 265.0 L 665.5 284.0 L 663.5 291.0 L 656.5 302.0 L 642.5 311.0 L 640.5 324.0 L 634.5 339.0 L 644.0 334.5 L 648.5 328.0 L 657.0 320.5 L 665.0 317.5 L 670.0 316.5 L 681.0 317.5 L 691.0 320.5 L 692.5 323.0 L 688.5 329.0 L 679.0 338.5 L 672.0 342.5 L 656.0 343.5 L 645.0 339.5 L 634.0 346.5 L 621.5 360.0 L 611.5 378.0 L 604.5 400.0 L 601.5 416.0 L 601.5 426.0 L 600.5 427.0 L 601.5 464.0 L 602.5 465.0 L 603.5 481.0 L 606.5 492.0 L 609.0 513.5 L 610.5 513.0 L 612.5 506.0 L 624.5 483.0 L 640.5 462.0 L 663.0 440.5 L 705.0 408.5 L 717.5 396.0 L 724.5 387.0 L 733.5 370.0 L 738.5 348.0 L 738.5 327.0 L 737.5 326.0 L 735.5 310.0 L 730.5 296.0 L 724.5 285.0 L 717.5 275.0 L 704.5 261.0 L 699.5 245.0 L 699.5 236.0 L 701.5 229.0 L 704.5 223.0 L 712.0 214.5 L 720.0 208.5 L 728.0 204.5 L 729.5 205.0 L 731.5 211.0 L 732.5 236.0 L 730.5 242.0 L 727.5 248.0 L 719.0 256.5 L 713.0 259.5 L 712.5 261.0 L 718.5 267.0 L 729.5 282.0 L 739.5 303.0 L 739.5 306.0 L 742.5 313.0 L 743.5 326.0 L 744.5 327.0 L 744.5 349.0 L 742.5 357.0 L 743.0 361.5 L 762.5 325.0 L 774.5 307.0 L 781.5 293.0 L 784.5 284.0 L 785.5 274.0 L 786.5 273.0 L 786.5 264.0 L 777.5 254.0 L 773.5 245.0 L 774.5 227.0 L 784.0 209.5 L 795.5 223.0 L 799.5 231.0 L 801.5 240.0 L 799.5 251.0 L 796.5 257.0 L 791.5 263.0 L 791.5 278.0 L 788.5 288.0 L 789.0 289.5 L 796.5 282.0 L 815.5 257.0 L 821.5 248.0 L 830.5 230.0 L 832.5 224.0 L 829.5 214.0 L 829.5 199.0 L 835.5 184.0 L 847.0 172.5 L 864.0 162.5 L 869.0 160.5 L 870.5 163.0 L 870.5 169.0 L 871.5 170.0 L 871.5 189.0 L 867.5 205.0 L 861.5 214.0 L 854.0 220.5 L 839.0 226.5 L 836.5 229.0 L 835.5 233.0 L 824.5 254.0 L 808.5 276.0 L 810.0 276.5 L 817.0 272.5 L 828.0 268.5 L 840.0 266.5 L 848.5 252.0 L 853.0 247.5 L 862.0 242.5 L 870.0 240.5 L 884.0 240.5 L 895.5 243.0 L 895.5 245.0 L 887.5 260.0 L 880.0 268.5 L 874.0 272.5 L 864.0 275.5 L 849.0 274.5 L 842.0 271.5 L 830.0 273.5 L 809.0 282.5 L 799.0 289.5 L 784.5 304.0 L 771.5 322.0 L 746.5 368.0 L 737.5 382.0 L 728.5 393.0 L 730.0 393.5 L 737.0 388.5 L 755.0 380.5 L 795.0 369.5 L 815.0 360.5 L 827.5 350.0 L 829.5 336.0 L 836.5 324.0 L 843.0 318.5 L 854.0 313.5 L 864.0 311.5 L 874.5 312.0 L 874.5 319.0 L 870.5 334.0 L 865.5 343.0 L 858.0 350.5 L 846.0 355.5 L 831.0 355.5 L 819.0 364.5 L 806.0 371.5 L 760.0 385.5 L 734.0 397.5 L 718.0 407.5 L 674.0 439.5 L 661.0 450.5 L 639.5 473.0 L 625.5 494.0 L 617.5 511.0 L 612.5 526.0 L 608.5 544.0 L 608.5 552.0 L 607.5 553.0 L 607.5 575.0 L 608.5 576.0 L 608.5 584.0 L 610.0 586.5 L 614.5 575.0 L 621.5 562.0 L 629.5 551.0 L 645.0 535.5 L 661.0 524.5 L 677.0 516.5 L 701.0 508.5 L 709.0 504.5 L 721.5 494.0 L 726.5 487.0 L 730.5 477.0 L 726.5 461.0 L 728.5 448.0 L 732.5 441.0 L 742.0 431.5 L 748.0 427.5 L 754.0 424.5 L 756.5 426.0 L 759.5 440.0 L 759.5 450.0 L 756.5 461.0 L 749.0 470.5 L 735.5 478.0 L 729.5 493.0 L 719.0 504.5 L 746.0 499.5 L 762.0 494.5 L 773.0 489.5 L 786.5 479.0 L 792.5 471.0 L 797.5 461.0 L 800.5 450.0 L 795.5 436.0 L 795.5 421.0 L 796.5 418.0 L 801.5 409.0 L 809.0 401.5 L 823.0 392.5 L 825.5 394.0 L 826.5 397.0 L 826.5 401.0 L 828.5 406.0 L 828.5 414.0 L 829.5 415.0 L 828.5 416.0 L 829.5 419.0 L 828.5 420.0 L 828.5 425.0 L 826.5 431.0 L 819.0 441.5 L 805.5 451.0 L 801.5 466.0 L 792.5 481.0 L 806.0 474.5 L 827.0 459.5 L 850.5 436.0 L 860.5 423.0 L 890.5 373.0 L 900.5 360.0 L 910.5 350.0 L 912.5 343.0 L 912.5 333.0 L 918.5 318.0 L 927.0 309.5 L 935.0 304.5 L 951.0 299.5 L 959.5 299.0 L 959.5 309.0 L 958.5 310.0 L 957.5 320.0 L 951.5 335.0 L 946.0 341.5 L 935.0 348.5 L 928.0 350.5 L 916.0 351.5 L 914.5 353.0 L 896.5 374.0 L 872.5 416.0 L 882.0 410.5 L 900.0 403.5 L 926.0 398.5 L 930.5 389.0 L 937.0 380.5 L 945.0 374.5 L 954.0 371.5 L 967.0 370.5 L 985.0 374.5 L 976.5 392.0 L 970.0 399.5 L 963.0 404.5 L 956.0 407.5 L 944.0 408.5 L 934.0 406.5 L 927.0 403.5 L 903.0 408.5 L 894.0 411.5 L 878.0 419.5 L 866.0 428.5 L 848.5 448.0 L 831.0 464.5 L 809.5 479.0 L 813.0 479.5 L 824.0 476.5 L 838.0 475.5 L 839.0 474.5 L 902.0 475.5 L 921.0 471.5 L 938.0 465.5 L 950.0 448.5 L 957.0 443.5 L 967.0 439.5 L 975.0 439.5 L 976.0 438.5 L 977.0 439.5 L 984.0 439.5 L 998.0 443.5 L 1003.5 447.0 L 995.5 459.0 L 987.0 467.5 L 974.0 474.5 L 956.0 475.5 L 946.0 472.5 L 941.0 469.5 L 933.0 473.5 L 927.0 474.5 L 920.0 477.5 L 904.0 480.5 L 887.5 481.0 L 888.0 482.5 L 905.0 490.5 L 917.0 499.5 L 932.0 506.5 L 936.0 506.5 L 942.0 502.5 L 952.0 499.5 L 967.0 499.5 L 978.0 504.5 L 988.5 515.0 L 995.5 525.0 L 994.0 528.5 L 985.0 531.5 L 970.0 534.5 L 964.0 534.5 L 952.0 531.5 L 944.0 526.5 L 932.0 511.5 L 918.0 506.5 L 895.0 491.5 L 881.0 485.5 L 856.0 480.5 L 832.0 481.5 L 797.0 489.5 L 759.0 502.5 L 743.0 506.5 L 723.0 509.5 L 684.0 520.5 L 667.0 528.5 L 649.0 540.5 L 634.5 555.0 L 625.5 568.0 L 617.5 584.0 L 611.5 602.0 L 608.5 617.0 L 607.5 637.0 L 606.5 638.0 L 606.5 722.0 L 607.5 723.0 L 608.5 744.0 L 614.5 773.0 L 619.5 787.0 L 628.5 805.0 L 645.5 827.0 L 658.0 838.5 L 675.0 850.5 L 686.0 856.5 L 709.0 864.5 L 721.0 865.5 L 722.0 866.5 L 752.0 866.5 L 753.0 865.5 L 765.0 865.5 L 765.5 864.0 L 743.0 859.5 L 719.0 850.5 L 695.0 838.5 L 670.0 821.5 L 652.5 805.0 L 637.5 785.0 L 626.5 762.0 L 626.5 759.0 L 621.5 744.0 L 620.5 734.0 L 619.5 733.0 L 619.5 724.0 L 618.5 723.0 L 618.5 671.0 L 617.5 670.0 L 618.5 668.0 L 619.5 624.0 L 620.5 623.0 L 622.5 607.0 L 628.5 588.0 L 637.5 571.0 L 646.5 559.0 L 658.0 548.5 L 672.0 539.5 L 684.0 534.5 L 701.0 530.5 L 710.0 530.5 L 711.0 529.5 L 727.0 529.5 L 728.0 530.5 L 744.0 531.5 L 790.0 544.5 L 809.0 543.5 L 820.0 539.5 L 826.5 527.0 L 835.0 518.5 L 845.0 514.5 L 857.0 513.5 L 858.0 514.5 L 868.0 515.5 L 873.5 518.0 L 863.5 536.0 L 855.0 543.5 L 843.0 547.5 L 836.0 547.5 L 823.0 543.5 L 810.0 548.5 L 798.0 549.5 L 798.0 551.5 L 800.0 551.5 L 816.0 560.5 L 830.0 565.5 L 856.0 570.5 L 879.0 570.5 L 880.0 569.5 L 889.0 569.5 L 890.0 568.5 L 902.0 567.5 L 909.0 561.5 L 918.0 556.5 L 933.0 554.5 L 944.0 557.5 L 954.0 563.5 L 963.5 573.0 L 965.5 577.0 L 963.0 579.5 L 945.0 587.5 L 926.0 588.5 L 913.0 582.5 L 903.0 572.5 L 886.0 574.5 L 885.0 575.5 L 875.0 575.5 L 874.0 576.5 L 857.0 576.5 L 849.0 574.5 L 842.0 574.5 L 824.0 569.5 L 831.0 576.5 L 855.0 593.5 L 889.0 611.5 L 911.0 610.5 L 920.0 613.5 L 930.5 622.0 L 933.5 626.0 L 938.5 638.0 L 940.5 646.0 L 940.0 653.5 L 928.0 653.5 L 910.0 649.5 L 903.0 645.5 L 896.5 639.0 L 891.5 630.0 L 888.5 618.0 L 886.0 615.5 L 861.0 603.5 L 835.0 586.5 L 842.5 605.0 L 845.5 620.0 L 855.0 626.5 L 860.5 632.0 L 866.5 643.0 L 866.5 648.0 L 867.5 649.0 L 866.5 664.0 L 860.5 680.0 L 858.0 680.5 L 851.0 675.5 L 839.5 664.0 L 834.5 654.0 L 833.5 639.0 L 840.5 621.0 L 835.5 601.0 L 829.5 589.0 L 822.5 579.0 L 811.0 567.5 L 793.0 555.5 L 779.0 548.5 L 766.0 544.5 L 763.0 542.5 L 742.5 538.0 L 755.5 550.0 L 759.5 556.0 L 763.5 563.0 L 769.5 580.0 L 778.5 588.0 L 785.5 597.0 L 789.5 605.0 L 792.5 616.0 L 792.5 626.0 L 791.5 631.0 L 789.5 631.0 L 789.5 624.0 L 786.5 610.0 L 778.5 596.0 L 769.0 587.5 L 768.5 595.0 L 774.5 604.0 L 776.5 610.0 L 776.5 623.0 L 770.5 636.0 L 756.0 649.5 L 754.5 649.0 L 751.5 643.0 L 747.5 632.0 L 746.5 616.0 L 750.5 605.0 L 762.5 593.0 L 762.5 578.0 L 758.5 566.0 L 753.5 557.0 L 742.0 545.5 L 728.0 538.5 L 719.0 536.5 L 705.0 536.5 L 704.0 537.5 L 693.0 538.5 L 681.0 542.5 L 663.0 552.5 L 649.5 565.0 L 643.5 573.0 L 633.5 592.0 L 628.5 609.0 L 625.5 625.0 L 625.5 634.0 L 624.5 635.0 L 624.5 722.0 L 625.5 723.0 L 626.5 738.0 L 632.5 761.0 L 644.5 785.0 L 653.5 797.0 L 671.0 814.5 L 693.0 830.5 L 720.0 844.5 L 750.0 855.5 L 771.0 859.5 L 799.0 859.5 L 800.0 858.5 L 828.0 855.5 L 829.0 854.5 L 850.0 854.5 L 868.0 858.5 L 900.0 873.5 L 913.0 876.5 L 927.5 877.0 L 919.0 879.5 L 899.0 877.5 L 871.0 865.5 L 851.0 860.5 L 830.0 860.5 L 829.0 861.5 L 809.0 863.5 L 803.0 865.5 L 773.5 869.0 L 774.0 870.5 L 780.0 871.5 L 793.0 877.5 L 803.0 884.5 L 817.0 897.5 L 828.0 903.5 L 841.0 907.5 L 859.0 909.5 L 873.0 915.5 L 879.0 919.5 L 902.0 942.5 L 915.5 949.0 L 909.0 948.5 L 900.0 944.5 L 893.0 939.5 L 878.0 924.5 L 865.0 916.5 L 854.0 913.5 L 841.0 912.5 L 829.0 909.5 L 821.5 906.0 L 831.5 929.0 L 840.5 945.0 L 850.0 954.5 L 863.0 962.5 L 873.5 972.0 L 879.5 982.0 L 882.5 991.0 L 882.0 992.5 L 872.5 976.0 L 862.0 966.5 L 851.0 960.5 L 842.0 953.5 L 834.5 945.0 L 827.5 933.0 L 822.5 919.0 L 816.5 908.0 L 812.5 902.0 L 796.0 886.5 L 779.0 877.5 L 769.0 874.5 L 757.0 873.5 L 756.0 872.5 L 725.0 872.5 L 724.0 871.5 L 718.0 871.5 L 717.5 873.0 L 725.5 879.0 L 722.5 880.0 L 724.5 882.0 L 723.0 882.5 L 712.0 873.5 L 702.0 868.5 L 689.0 864.5 L 675.0 857.5 L 657.0 845.5 L 636.5 826.0 L 626.0 812.5 L 627.5 821.0 L 632.5 836.0 L 642.5 859.0 L 654.5 877.0 L 669.0 891.5 L 683.0 901.5 L 701.0 910.5 L 724.0 918.5 L 746.0 923.5 L 740.5 906.0 L 729.5 889.0 L 731.5 887.0 L 731.0 884.5 L 739.5 895.0 L 744.5 904.0 L 749.5 918.0 L 755.0 926.5 L 770.0 931.5 L 784.0 938.5 L 799.5 951.0 L 807.5 962.0 L 813.5 974.0 L 817.5 986.0 L 825.5 1001.0 L 842.5 1018.0 L 841.0 1018.5 L 836.0 1015.5 L 822.5 1003.0 L 814.5 990.0 L 812.5 983.0 L 804.5 966.0 L 793.0 951.5 L 781.0 942.5 L 771.0 937.5 L 755.0 932.5 L 754.5 934.0 L 761.5 954.0 L 761.5 957.0 L 767.5 971.0 L 772.5 988.0 L 782.5 1009.0 L 795.5 1027.0 L 810.5 1040.0 L 809.0 1040.5 L 799.0 1034.5 L 791.5 1028.0 L 782.5 1017.0 L 769.5 994.0 L 748.5 933.0 L 740.0 927.5 L 709.0 919.5 L 681.0 906.5 L 697.5 927.0 L 705.5 943.0 L 709.5 960.0 L 710.5 979.0 L 714.5 989.0 L 731.5 1007.0 L 741.5 1023.0 L 741.5 1025.0 L 748.5 1039.0 L 755.5 1050.0 L 763.0 1058.5 L 774.5 1067.0 L 774.0 1068.5 L 762.0 1061.5 L 751.5 1051.0 L 746.5 1044.0 L 735.5 1022.0 L 729.5 1013.0 L 713.0 996.5 L 713.5 1009.0 L 714.5 1010.0 L 714.5 1043.0 L 715.5 1044.0 L 715.5 1049.0 L 720.5 1065.0 L 727.5 1078.0 L 737.5 1090.0 L 736.0 1090.5 L 723.5 1078.0 L 719.5 1072.0 L 712.5 1056.0 L 709.5 1040.0 L 708.5 1004.0 L 704.5 992.0 L 700.5 986.0 L 693.0 978.5 L 653.0 949.5 L 632.5 928.0 L 622.0 911.5 L 625.5 947.0 L 630.5 967.0 L 635.5 978.0 L 643.5 990.0 L 661.5 1009.0 L 666.5 1016.0 L 671.5 1027.0 L 673.5 1036.0 L 673.5 1043.0 L 674.5 1044.0 L 673.5 1064.0 L 672.5 1065.0 L 672.5 1085.0 L 673.5 1086.0 L 673.5 1091.0 L 679.5 1106.0 L 677.5 1105.0 L 673.5 1099.0 L 669.5 1089.0 L 668.5 1084.0 L 669.5 1041.0 L 666.5 1028.0 L 658.5 1013.0 L 640.5 993.0 L 638.5 993.0 L 639.5 997.0 L 639.5 1021.0 L 637.5 1029.0 L 637.5 1036.0 L 636.5 1041.0 L 635.5 1041.0 L 635.5 1035.0 L 634.5 1034.0 L 634.5 1018.0 L 635.5 1017.0 L 634.5 997.0 L 631.5 983.0 L 623.0 960.5 L 615.5 988.0 L 601.5 1017.0 L 597.5 1030.0 L 598.5 1045.0 L 600.5 1048.0 L 601.5 1053.0 L 615.5 1079.0 L 621.5 1098.0 L 621.5 1109.0 L 622.5 1110.0 L 621.5 1121.0 L 618.5 1131.0 L 611.0 1143.5 Z M 595.5 126.0 L 604.5 116.0 L 608.5 109.0 L 611.5 98.0 L 611.5 88.0 L 606.5 71.0 L 597.5 56.0 L 594.0 52.5 L 584.5 66.0 L 579.5 77.0 L 577.5 85.0 L 577.5 101.0 L 580.5 110.0 L 585.5 118.0 L 594.0 126.5 L 595.5 126.0 Z M 549.5 165.0 L 551.5 157.0 L 551.5 147.0 L 550.5 146.0 L 550.5 141.0 L 546.5 131.0 L 541.5 124.0 L 531.0 114.5 L 510.0 104.5 L 508.5 111.0 L 509.5 126.0 L 511.5 135.0 L 515.5 145.0 L 530.0 159.5 L 545.0 165.5 L 549.5 165.0 Z M 643.5 165.0 L 649.0 163.5 L 663.0 155.5 L 673.5 142.0 L 678.5 125.0 L 678.0 105.5 L 670.0 107.5 L 660.0 112.5 L 653.0 117.5 L 642.5 129.0 L 637.5 141.0 L 636.5 157.0 L 637.5 158.0 L 637.5 164.0 L 639.0 165.5 L 643.5 165.0 Z M 453.5 162.0 L 455.5 154.0 L 455.5 145.0 L 450.5 132.0 L 440.0 121.5 L 426.0 114.5 L 425.5 133.0 L 426.5 134.0 L 426.5 139.0 L 429.5 146.0 L 434.5 153.0 L 440.0 157.5 L 448.0 161.5 L 453.5 162.0 Z M 736.5 162.0 L 746.0 158.5 L 757.5 147.0 L 762.5 131.0 L 762.0 114.5 L 754.0 117.5 L 745.0 123.5 L 738.5 130.0 L 735.5 135.0 L 732.5 143.0 L 732.5 156.0 L 733.5 161.0 L 735.0 162.5 L 736.5 162.0 Z M 350.5 221.0 L 352.5 212.0 L 352.5 198.0 L 348.5 189.0 L 337.0 176.5 L 322.0 167.5 L 320.5 171.0 L 320.5 189.0 L 321.5 190.0 L 321.5 195.0 L 325.5 205.0 L 338.0 217.5 L 347.0 221.5 L 350.5 221.0 Z M 838.5 222.0 L 852.0 215.5 L 860.5 207.0 L 864.5 199.0 L 866.5 189.0 L 866.5 170.0 L 865.0 168.5 L 850.0 176.5 L 839.5 187.0 L 835.5 195.0 L 834.5 215.0 L 836.5 221.0 L 838.5 222.0 Z M 478.5 256.0 L 482.5 247.0 L 482.5 234.0 L 481.5 231.0 L 477.5 224.0 L 469.0 215.5 L 463.0 211.5 L 461.0 211.5 L 459.5 217.0 L 459.5 235.0 L 460.5 239.0 L 464.5 246.0 L 471.0 252.5 L 478.5 256.0 Z M 709.5 256.0 L 721.5 248.0 L 727.5 237.0 L 728.5 222.0 L 726.0 211.5 L 716.0 217.5 L 710.5 223.0 L 705.5 231.0 L 704.5 247.0 L 707.5 255.0 L 709.5 256.0 Z M 789.5 258.0 L 794.5 250.0 L 795.5 235.0 L 791.5 226.0 L 785.0 217.5 L 778.5 230.0 L 777.5 241.0 L 781.5 251.0 L 788.0 258.5 L 789.5 258.0 Z M 399.5 258.0 L 405.5 251.0 L 409.5 242.0 L 408.5 230.0 L 403.0 218.5 L 397.5 223.0 L 391.5 236.0 L 392.5 249.0 L 395.5 255.0 L 399.5 258.0 Z M 334.5 270.0 L 340.0 268.5 L 340.5 265.0 L 335.5 256.0 L 328.0 249.5 L 318.0 245.5 L 302.0 245.5 L 299.5 247.0 L 302.5 255.0 L 307.5 262.0 L 316.0 268.5 L 321.0 270.5 L 334.5 270.0 Z M 866.5 270.0 L 873.0 267.5 L 881.5 260.0 L 888.5 248.0 L 888.0 246.5 L 885.0 245.5 L 865.0 246.5 L 857.0 250.5 L 851.5 256.0 L 845.5 266.0 L 847.0 268.5 L 853.0 270.5 L 866.5 270.0 Z M 643.5 305.0 L 652.5 299.0 L 656.5 294.0 L 660.5 285.0 L 660.5 265.0 L 659.5 260.0 L 658.0 258.5 L 645.5 268.0 L 639.5 276.0 L 637.5 281.0 L 636.5 294.0 L 639.5 304.0 L 641.0 305.5 L 643.5 305.0 Z M 546.5 305.0 L 550.5 295.0 L 550.5 284.0 L 548.5 278.0 L 544.5 271.0 L 539.0 265.5 L 534.0 261.5 L 529.0 259.5 L 527.5 262.0 L 527.5 269.0 L 526.5 270.0 L 526.5 282.0 L 528.5 290.0 L 531.5 295.0 L 539.0 302.5 L 545.0 305.5 L 546.5 305.0 Z M 270.5 346.0 L 270.5 334.0 L 265.5 321.0 L 255.0 311.5 L 245.0 306.5 L 234.0 304.5 L 233.5 308.0 L 236.5 323.0 L 243.5 336.0 L 250.0 341.5 L 256.0 344.5 L 265.0 346.5 L 270.5 346.0 Z M 922.5 346.0 L 928.0 345.5 L 938.0 341.5 L 947.5 332.0 L 953.5 316.0 L 954.0 304.5 L 943.0 306.5 L 936.0 310.5 L 934.0 310.5 L 922.5 321.0 L 917.5 333.0 L 917.5 346.0 L 922.5 346.0 Z M 354.5 351.0 L 355.5 348.0 L 352.5 335.0 L 350.5 331.0 L 342.0 322.5 L 329.0 317.5 L 318.5 317.0 L 321.5 332.0 L 324.5 338.0 L 331.0 345.5 L 344.0 351.5 L 354.5 351.0 Z M 842.5 351.0 L 854.0 347.5 L 861.5 340.0 L 865.5 333.0 L 868.5 324.0 L 869.0 316.5 L 863.0 316.5 L 849.0 320.5 L 839.5 328.0 L 836.5 332.0 L 833.5 340.0 L 832.5 351.0 L 842.5 351.0 Z M 530.5 338.0 L 536.0 336.5 L 536.5 334.0 L 529.0 325.5 L 518.0 321.5 L 512.0 321.5 L 502.5 324.0 L 505.5 329.0 L 514.0 336.5 L 519.0 338.5 L 530.5 338.0 Z M 663.5 339.0 L 671.0 337.5 L 676.0 334.5 L 685.5 324.0 L 682.0 322.5 L 668.0 321.5 L 657.0 326.5 L 652.5 331.0 L 650.5 336.0 L 657.0 338.5 L 663.5 339.0 Z M 246.5 403.0 L 255.0 400.5 L 255.5 397.0 L 248.5 385.0 L 243.0 380.5 L 238.0 377.5 L 231.0 375.5 L 219.0 375.5 L 209.5 378.0 L 215.5 389.0 L 223.0 397.5 L 236.0 403.5 L 246.5 403.0 Z M 951.5 403.0 L 962.0 399.5 L 971.5 390.0 L 975.5 384.0 L 977.5 378.0 L 967.0 375.5 L 958.0 375.5 L 948.0 378.5 L 941.0 383.5 L 934.5 392.0 L 931.5 400.0 L 942.0 403.5 L 951.5 403.0 Z M 383.5 444.0 L 387.5 432.0 L 387.5 423.0 L 385.5 417.0 L 376.0 405.5 L 366.0 399.5 L 363.5 408.0 L 363.5 424.0 L 364.5 427.0 L 367.5 433.0 L 375.0 440.5 L 382.0 444.5 L 383.5 444.0 Z M 805.5 444.0 L 815.0 438.5 L 822.5 428.0 L 824.5 415.0 L 823.5 414.0 L 823.5 406.0 L 821.0 399.5 L 814.0 403.5 L 804.5 413.0 L 801.5 419.0 L 799.5 430.0 L 801.5 439.0 L 803.5 443.0 L 805.5 444.0 Z M 452.5 472.0 L 455.5 464.0 L 454.5 450.0 L 450.5 443.0 L 443.0 435.5 L 435.0 431.5 L 432.5 441.0 L 432.5 450.0 L 434.5 458.0 L 441.0 466.5 L 451.0 472.5 L 452.5 472.0 Z M 736.5 472.0 L 746.0 466.5 L 752.5 458.0 L 754.5 451.0 L 754.5 440.0 L 752.0 431.5 L 749.0 432.5 L 740.0 439.5 L 732.5 451.0 L 731.5 462.0 L 733.5 470.0 L 735.0 472.5 L 736.5 472.0 Z M 228.5 471.0 L 238.0 468.5 L 242.0 466.5 L 242.5 465.0 L 236.5 455.0 L 228.0 447.5 L 220.0 444.5 L 211.0 443.5 L 210.0 444.5 L 200.0 445.5 L 191.5 449.0 L 195.5 455.0 L 209.0 467.5 L 222.0 471.5 L 228.5 471.0 Z M 966.5 471.0 L 974.0 469.5 L 983.0 464.5 L 991.5 456.0 L 996.5 449.0 L 984.0 444.5 L 968.0 444.5 L 958.0 448.5 L 949.5 457.0 L 944.5 465.0 L 947.0 467.5 L 952.0 469.5 L 962.0 471.5 L 966.5 471.0 Z M 706.5 981.0 L 702.5 951.0 L 694.5 933.0 L 682.5 917.0 L 655.5 890.0 L 644.5 875.0 L 635.5 859.0 L 624.5 832.0 L 624.5 829.0 L 618.5 811.0 L 618.5 807.0 L 616.5 803.0 L 616.5 799.0 L 606.5 767.0 L 602.5 746.0 L 601.5 726.0 L 600.5 725.0 L 600.5 633.0 L 601.5 632.0 L 601.5 621.0 L 604.5 606.0 L 602.5 582.0 L 601.5 581.0 L 601.5 549.0 L 602.5 548.0 L 604.5 528.0 L 603.5 527.0 L 602.5 506.0 L 596.5 474.0 L 594.0 447.5 L 592.5 449.0 L 590.5 478.0 L 589.5 479.0 L 589.5 484.0 L 584.5 509.0 L 584.5 518.0 L 583.5 519.0 L 583.5 536.0 L 584.5 537.0 L 585.5 555.0 L 586.5 556.0 L 586.5 573.0 L 585.5 574.0 L 585.5 583.0 L 583.5 591.0 L 582.5 605.0 L 584.5 611.0 L 585.5 625.0 L 586.5 626.0 L 586.5 638.0 L 587.5 639.0 L 587.5 721.0 L 586.5 722.0 L 586.5 734.0 L 585.5 735.0 L 585.5 742.0 L 584.5 743.0 L 584.5 749.0 L 581.5 765.0 L 564.5 828.0 L 552.5 858.0 L 543.5 874.0 L 530.5 891.0 L 503.5 918.0 L 491.5 934.0 L 484.5 950.0 L 481.5 963.0 L 479.5 981.0 L 481.0 981.5 L 490.0 973.5 L 514.0 957.5 L 533.0 942.5 L 548.5 926.0 L 559.5 910.0 L 572.5 883.0 L 582.5 853.0 L 588.5 828.0 L 588.5 821.0 L 591.5 805.0 L 591.5 794.0 L 593.0 790.5 L 594.5 791.0 L 595.5 795.0 L 596.5 813.0 L 604.5 851.0 L 615.5 885.0 L 625.5 906.0 L 642.5 931.0 L 658.0 946.5 L 679.0 962.5 L 688.0 967.5 L 703.0 979.5 L 706.5 981.0 Z M 226.5 529.0 L 230.0 528.5 L 239.0 523.5 L 244.5 518.0 L 248.5 511.0 L 242.0 506.5 L 230.0 503.5 L 225.0 503.5 L 218.0 505.5 L 210.0 510.5 L 200.5 521.0 L 199.5 525.0 L 215.0 529.5 L 226.5 529.0 Z M 971.5 529.0 L 988.5 525.0 L 984.5 518.0 L 972.0 506.5 L 962.0 503.5 L 956.0 503.5 L 948.0 505.5 L 938.5 511.0 L 944.5 520.0 L 951.0 525.5 L 962.0 529.5 L 971.5 529.0 Z M 352.5 542.0 L 359.0 540.5 L 360.5 539.0 L 356.5 530.0 L 349.0 522.5 L 339.0 518.5 L 330.0 518.5 L 320.5 521.0 L 328.5 534.0 L 335.0 539.5 L 342.0 542.5 L 352.5 542.0 Z M 844.5 542.0 L 848.0 541.5 L 856.0 536.5 L 861.5 530.0 L 866.5 521.0 L 859.0 518.5 L 849.0 518.5 L 842.0 520.5 L 833.0 526.5 L 829.5 531.0 L 826.5 539.0 L 828.0 540.5 L 835.0 542.5 L 844.5 542.0 Z M 259.5 583.0 L 263.0 582.5 L 272.0 577.5 L 278.5 570.0 L 271.0 563.5 L 264.0 560.5 L 255.0 559.5 L 245.0 561.5 L 237.0 566.5 L 228.5 575.0 L 230.0 577.5 L 242.0 582.5 L 247.0 583.5 L 259.5 583.0 Z M 940.5 583.0 L 947.0 581.5 L 958.5 576.0 L 951.0 567.5 L 941.0 561.5 L 933.0 559.5 L 927.0 559.5 L 919.0 561.5 L 912.0 565.5 L 907.5 570.0 L 917.0 579.5 L 921.0 581.5 L 927.0 583.5 L 940.5 583.0 Z M 429.5 642.0 L 434.5 628.0 L 434.5 615.0 L 427.5 603.0 L 422.0 598.5 L 416.5 605.0 L 414.5 611.0 L 414.5 623.0 L 419.5 633.0 L 429.5 642.0 Z M 758.5 642.0 L 766.5 633.0 L 771.5 623.0 L 771.5 610.0 L 765.0 598.5 L 757.5 604.0 L 751.5 615.0 L 752.5 632.0 L 756.5 642.0 L 758.5 642.0 Z M 256.5 648.0 L 269.0 646.5 L 280.0 641.5 L 287.5 633.0 L 291.5 623.0 L 292.5 617.0 L 289.0 615.5 L 275.0 615.5 L 266.0 619.5 L 257.5 628.0 L 253.5 636.0 L 250.5 648.0 L 256.5 648.0 Z M 935.5 648.0 L 932.5 636.0 L 928.5 628.0 L 920.0 619.5 L 911.0 615.5 L 897.0 615.5 L 893.5 617.0 L 894.5 624.0 L 899.5 635.0 L 906.0 641.5 L 916.0 646.5 L 928.0 647.5 L 929.0 648.5 L 935.5 648.0 Z M 329.5 673.0 L 342.5 661.0 L 346.5 653.0 L 347.5 640.0 L 342.0 625.5 L 330.5 634.0 L 323.5 647.0 L 323.5 659.0 L 327.5 673.0 L 329.5 673.0 Z M 857.5 673.0 L 860.5 667.0 L 862.5 659.0 L 861.5 644.0 L 856.5 635.0 L 848.0 627.5 L 844.0 626.5 L 838.5 639.0 L 838.5 650.0 L 843.5 661.0 L 853.0 670.5 L 857.5 673.0 Z M 443.5 923.0 L 463.0 918.5 L 491.0 908.5 L 509.0 898.5 L 521.0 889.5 L 535.5 874.0 L 543.5 862.0 L 556.5 832.0 L 561.5 813.0 L 547.5 830.0 L 528.0 847.5 L 503.0 862.5 L 477.0 872.5 L 464.0 882.5 L 455.5 892.0 L 450.5 900.0 L 440.5 923.0 L 443.5 923.0 Z M 593.5 1024.0 L 598.5 1009.0 L 606.5 994.0 L 613.5 975.0 L 617.5 955.0 L 617.5 946.0 L 618.5 945.0 L 618.5 933.0 L 617.5 932.0 L 617.5 923.0 L 616.5 922.0 L 615.5 910.0 L 594.0 834.5 L 592.5 835.0 L 592.5 839.0 L 588.5 851.0 L 587.5 858.0 L 576.5 890.0 L 571.5 910.0 L 569.5 929.0 L 568.5 930.0 L 568.5 954.0 L 573.5 979.0 L 578.5 993.0 L 587.5 1011.0 L 591.5 1023.0 L 593.5 1024.0 Z" fill="#796A51" fill-rule="evenodd"/>
</svg>